<svg width="616" height="616" viewBox="0 0 616 616" fill="none" xmlns="http://www.w3.org/2000/svg">
<g clip-path="url(#clip0_7_6)">
<path d="M616 0H0V616H616V0Z" fill="#C74385"/>
<path d="M420.81 249.788C418.601 237.596 408.075 228.716 395.862 225.944C377.583 222.068 343.757 219.296 307.158 219.296C270.58 219.296 236.212 222.068 217.912 225.944C205.72 228.716 195.173 237.032 192.964 249.788C190.733 263.648 188.525 283.052 188.525 308C188.525 332.948 190.733 352.352 193.505 366.212C195.736 378.404 206.261 387.284 218.453 390.056C237.857 393.932 271.122 396.704 307.721 396.704C344.319 396.704 377.583 393.932 396.987 390.056C409.18 387.284 419.705 378.968 421.935 366.212C424.145 352.352 426.917 332.385 427.479 308C426.354 283.052 423.582 263.648 420.81 249.788ZM277.229 346.808V269.192L344.861 308L277.229 346.808Z" fill="white"/>
</g>
<defs>
<clipPath id="clip0_7_6">
<rect width="616" height="616" fill="white"/>
</clipPath>
</defs>
</svg>
