<svg width="593" height="594" viewBox="0 0 593 594" fill="none" xmlns="http://www.w3.org/2000/svg">
<path d="M550.643 0.375H42.2248C18.9283 0.375 0 19.5762 0 43.1473V550.853C0 574.424 18.9283 593.625 42.2248 593.625H550.643C573.939 593.625 593 574.424 593 550.853V43.1473C593 19.5762 573.939 0.375 550.643 0.375ZM179.224 508.875H91.3326V225.757H179.356V508.875H179.224ZM135.278 187.09C107.084 187.09 84.3172 164.181 84.3172 136.107C84.3172 108.034 107.084 85.125 135.278 85.125C163.34 85.125 186.239 108.034 186.239 136.107C186.239 164.313 163.472 187.09 135.278 187.09ZM508.683 508.875H420.792V371.156C420.792 338.316 420.13 296.073 375.125 296.073C329.327 296.073 322.311 331.827 322.311 368.773V508.875H234.42V225.757H318.738V264.424H319.929C331.709 242.177 360.433 218.739 403.187 218.739C492.137 218.739 508.683 277.402 508.683 353.677V508.875Z" fill="white"/>
</svg>
