<svg width="540" height="617" viewBox="0 0 540 617" fill="none" xmlns="http://www.w3.org/2000/svg">
<path d="M270 308.5C310.919 308.5 350.162 292.249 379.096 263.321C408.031 234.394 424.286 195.16 424.286 154.25C424.286 113.34 408.031 74.1063 379.096 45.1788C350.162 16.2513 310.919 0 270 0C229.081 0 189.838 16.2513 160.904 45.1788C131.969 74.1063 115.714 113.34 115.714 154.25C115.714 195.16 131.969 234.394 160.904 263.321C189.838 292.249 229.081 308.5 270 308.5ZM209 330C90.2723 330 0 462.509 0 581.209C0 600.972 16.0313 617 35.7991 617H504.201C523.969 617 540 600.972 540 581.209C540 462.509 442.728 330 324 330H209Z" fill="black"/>
</svg>
