<svg width="351" height="287" viewBox="0 0 351 287" fill="none" xmlns="http://www.w3.org/2000/svg">
<path d="M351 34.6461C338.086 40.3791 324.207 44.2401 309.641 45.9805C324.514 37.0739 335.936 22.9608 341.304 6.142C327.395 14.3905 311.98 20.3867 295.571 23.6189C282.453 9.62275 263.718 0.876999 243.009 0.876999C196.516 0.876999 162.352 44.2548 172.853 89.2851C113.022 86.287 59.9625 57.622 24.4384 14.0541C5.57213 46.4193 14.6543 88.7586 46.7123 110.199C34.9245 109.819 23.8095 106.587 14.1131 101.19C13.3234 134.55 37.2353 165.759 71.8673 172.706C61.7321 175.456 50.6318 176.099 39.3413 173.935C48.4965 202.541 75.0848 223.352 106.616 223.937C76.3425 247.674 38.2005 258.277 0 253.773C31.8679 274.204 69.732 286.123 110.389 286.123C244.091 286.123 319.629 173.203 315.066 71.9252C329.136 61.7609 341.347 49.081 351 34.6461Z" fill="white"/>
</svg>
