<svg version="1.1" id="Layer_1" xmlns="http://www.w3.org/2000/svg" xmlns:xlink="http://www.w3.org/1999/xlink" x="0px" y="0px"
	 width="100%" viewBox="0 0 506 506" enable-background="new 0 0 506 506" xml:space="preserve">
<path fill="#c74385" opacity="1.000000" stroke="none" 
	d="
M232.000000,1.000000 
	C245.687561,1.000000 259.375122,1.000000 273.682739,1.396465 
	C285.640503,3.497540 297.090759,4.660868 308.298309,6.991307 
	C409.420959,28.018223 489.567688,113.936638 504.182556,216.663147 
	C505.007080,222.458405 506.055695,228.221786 507.000000,234.000000 
	C507.000000,247.354233 507.000000,260.708466 506.619141,274.689758 
	C504.728424,285.514679 503.798035,295.838043 501.619354,305.890930 
	C478.906738,410.690247 396.546875,488.085266 290.844574,504.232025 
	C284.894318,505.140991 278.948090,506.076721 273.000000,507.000000 
	C259.979095,507.000000 246.958206,507.000000 233.303375,506.617920 
	C228.372635,505.742188 224.061768,505.347626 219.781189,504.739746 
	C172.936386,498.087524 130.860275,480.200836 94.355003,450.085144 
	C44.327251,408.813812 14.001599,356.038757 3.870348,291.831146 
	C2.983353,286.209778 1.960011,280.609863 0.999999,275.000000 
	C1.000000,261.312439 1.000000,247.624878 1.381326,233.300842 
	C4.964141,198.681488 13.646957,166.208191 30.158569,136.252747 
	C70.889343,62.358700 132.833542,17.971451 216.219818,3.866058 
	C221.490662,2.974458 226.740433,1.958241 232.000000,1.000000 
M172.188171,130.691193 
	C134.360321,156.743225 111.721581,192.528961 107.408646,238.188477 
	C102.145081,293.912018 122.950241,339.088013 167.594376,372.997589 
	C179.183197,381.799927 192.122375,388.285126 205.916748,392.949524 
	C211.928986,394.982483 216.691040,392.746155 216.887039,387.509857 
	C217.240402,378.070587 216.986954,368.608582 216.986954,359.264648 
	C211.781296,359.809723 206.987335,360.750183 202.196609,360.733917 
	C185.565094,360.677551 172.442871,354.951569 165.936691,338.171753 
	C163.082123,330.809631 158.240326,324.700012 151.599243,319.998535 
	C149.201263,318.300903 147.769089,315.239014 145.896194,312.799652 
	C149.206757,312.372772 152.684189,311.081970 155.796234,311.683014 
	C164.699493,313.402466 170.482361,319.571320 175.264252,326.912964 
	C184.763046,341.496460 198.530594,345.899658 214.646698,339.606567 
	C215.804550,339.154449 217.342087,338.456085 217.741745,337.479004 
	C220.305740,331.210419 222.601166,324.831970 224.994064,318.465088 
	C222.414307,318.048279 219.132339,317.612274 215.889099,316.978149 
	C198.812042,313.639252 183.477676,307.274445 172.503403,292.819641 
	C158.959564,274.980347 152.203690,231.116348 173.254425,208.124649 
	C174.107727,207.192688 174.429520,205.127121 174.077774,203.841827 
	C171.416763,194.118118 171.439682,184.450897 173.979294,174.724731 
	C176.184082,166.280823 177.068100,165.674286 185.542038,167.369339 
	C186.030930,167.467148 186.537323,167.562103 186.985107,167.768097 
	C195.996033,171.913681 204.969528,176.142792 214.030045,180.176544 
	C215.826492,180.976318 218.120331,181.752701 219.898483,181.331406 
	C238.787262,176.856186 257.972290,175.293991 276.867371,179.439484 
	C287.306732,181.729843 295.220947,179.813568 304.135040,174.654694 
	C311.224152,170.551987 319.953522,169.204376 328.061157,167.030838 
	C329.203552,166.724579 332.044281,168.484970 332.244659,169.616959 
	C333.682617,177.740799 336.333344,186.172440 335.292816,194.070816 
	C334.172058,202.578735 335.013824,208.937149 339.980286,216.174835 
	C349.681763,230.313004 349.292847,246.698486 346.919373,262.951080 
	C343.123108,288.945862 329.194733,306.582245 303.541382,313.990356 
	C296.448639,316.038605 289.131073,317.308319 283.230713,318.638885 
	C285.565765,325.287750 289.428955,331.914917 289.999146,338.814270 
	C291.216827,353.548309 290.774414,368.422882 290.923401,383.240753 
	C291.023682,393.213226 294.530060,395.653992 304.121979,392.240112 
	C380.934235,364.901672 421.033539,278.534637 392.375458,202.189041 
	C358.915009,113.049980 252.652313,78.116592 172.188171,130.691193 
z"/>
<path fill="#FEFEFE" opacity="1.000000" stroke="none" 
	d="
M273.468658,507.000000 
	C278.948090,506.076721 284.894318,505.140991 290.844574,504.232025 
	C396.546875,488.085266 478.906738,410.690247 501.619354,305.890930 
	C503.798035,295.838043 504.728424,285.514679 506.619141,275.158447 
	C507.000000,352.260681 507.000000,429.521362 507.000000,507.000000 
	C429.312561,507.000000 351.624939,507.000000 273.468658,507.000000 
z"/>
<path fill="#FEFEFE" opacity="1.000000" stroke="none" 
	d="
M507.000000,233.531342 
	C506.055695,228.221786 505.007080,222.458405 504.182556,216.663147 
	C489.567688,113.936638 409.420959,28.018223 308.298309,6.991307 
	C297.090759,4.660868 285.640503,3.497540 274.151428,1.396465 
	C351.593719,1.000000 429.187408,1.000000 507.000000,1.000000 
	C507.000000,78.354088 507.000000,155.708389 507.000000,233.531342 
z"/>
<path fill="#FEFEFE" opacity="1.000000" stroke="none" 
	d="
M0.999999,275.468658 
	C1.960011,280.609863 2.983353,286.209778 3.870348,291.831146 
	C14.001599,356.038757 44.327251,408.813812 94.355003,450.085144 
	C130.860275,480.200836 172.936386,498.087524 219.781189,504.739746 
	C224.061768,505.347626 228.372635,505.742188 232.834717,506.617920 
	C155.739624,507.000000 78.479248,507.000000 1.000000,507.000000 
	C1.000000,429.979248 1.000000,352.958282 0.999999,275.468658 
z"/>
<path fill="#FEFEFE" opacity="1.000000" stroke="none" 
	d="
M231.531342,1.000000 
	C226.740433,1.958241 221.490662,2.974458 216.219818,3.866058 
	C132.833542,17.971451 70.889343,62.358700 30.158569,136.252747 
	C13.646957,166.208191 4.964141,198.681488 1.381326,232.832184 
	C1.000000,155.739777 1.000000,78.479553 1.000000,1.000000 
	C77.687424,1.000000 154.375046,1.000000 231.531342,1.000000 
z"/>
<path fill="#FEFEFE" opacity="1.000000" stroke="none" 
	d="
M172.476929,130.472290 
	C252.652313,78.116592 358.915009,113.049980 392.375458,202.189041 
	C421.033539,278.534637 380.934235,364.901672 304.121979,392.240112 
	C294.530060,395.653992 291.023682,393.213226 290.923401,383.240753 
	C290.774414,368.422882 291.216827,353.548309 289.999146,338.814270 
	C289.428955,331.914917 285.565765,325.287750 283.230713,318.638885 
	C289.131073,317.308319 296.448639,316.038605 303.541382,313.990356 
	C329.194733,306.582245 343.123108,288.945862 346.919373,262.951080 
	C349.292847,246.698486 349.681763,230.313004 339.980286,216.174835 
	C335.013824,208.937149 334.172058,202.578735 335.292816,194.070816 
	C336.333344,186.172440 333.682617,177.740799 332.244659,169.616959 
	C332.044281,168.484970 329.203552,166.724579 328.061157,167.030838 
	C319.953522,169.204376 311.224152,170.551987 304.135040,174.654694 
	C295.220947,179.813568 287.306732,181.729843 276.867371,179.439484 
	C257.972290,175.293991 238.787262,176.856186 219.898483,181.331406 
	C218.120331,181.752701 215.826492,180.976318 214.030045,180.176544 
	C204.969528,176.142792 195.996033,171.913681 186.985107,167.768097 
	C186.537323,167.562103 186.030930,167.467148 185.542038,167.369339 
	C177.068100,165.674286 176.184082,166.280823 173.979294,174.724731 
	C171.439682,184.450897 171.416763,194.118118 174.077774,203.841827 
	C174.429520,205.127121 174.107727,207.192688 173.254425,208.124649 
	C152.203690,231.116348 158.959564,274.980347 172.503403,292.819641 
	C183.477676,307.274445 198.812042,313.639252 215.889099,316.978149 
	C219.132339,317.612274 222.414307,318.048279 224.994064,318.465088 
	C222.601166,324.831970 220.305740,331.210419 217.741745,337.479004 
	C217.342087,338.456085 215.804550,339.154449 214.646698,339.606567 
	C198.530594,345.899658 184.763046,341.496460 175.264252,326.912964 
	C170.482361,319.571320 164.699493,313.402466 155.796234,311.683014 
	C152.684189,311.081970 149.206757,312.372772 145.896194,312.799652 
	C147.769089,315.239014 149.201263,318.300903 151.599243,319.998535 
	C158.240326,324.700012 163.082123,330.809631 165.936691,338.171753 
	C172.442871,354.951569 185.565094,360.677551 202.196609,360.733917 
	C206.987335,360.750183 211.781296,359.809723 216.986954,359.264648 
	C216.986954,368.608582 217.240402,378.070587 216.887039,387.509857 
	C216.691040,392.746155 211.928986,394.982483 205.916748,392.949524 
	C192.122375,388.285126 179.183197,381.799927 167.594376,372.997589 
	C122.950241,339.088013 102.145081,293.912018 107.408646,238.188477 
	C111.721581,192.528961 134.360321,156.743225 172.476929,130.472290 
z"/>
</svg>